<svg width="70" height="75" viewBox="0 0 70 75" fill="none" xmlns="http://www.w3.org/2000/svg">
<g id="Group 151">
<path id="Vector" d="M35.002 71.7529L3.35938 54.6131V20.3872L35.002 3.24735L66.6447 20.3872V54.6131L35.002 71.7529Z" fill="white" stroke="black"/>
<path id="Vector_2" d="M57.3375 37.5001C57.3375 49.0291 47.3674 58.4287 35.0008 58.4287C22.6341 58.4287 12.6641 49.0291 12.6641 37.5001C12.6641 25.9711 22.6341 16.5715 35.0008 16.5715C47.3674 16.5715 57.3375 25.9711 57.3375 37.5001Z" fill="#E36E02" stroke="black"/>
<path id="Vector_3" d="M34.9979 43.6956C31.6729 43.6978 28.3886 44.3813 25.3743 45.6983C22.3601 47.0154 19.6887 48.9341 17.5469 51.3206C19.6906 53.7036 22.3628 55.619 25.3769 56.9328C28.391 58.2466 31.6745 58.9273 34.9979 58.9273C38.3214 58.9273 41.6048 58.2466 44.6189 56.9328C47.6331 55.619 50.3053 53.7036 52.449 51.3206C50.3071 48.9341 47.6357 47.0154 44.6215 45.6983C41.6073 44.3813 38.3229 43.6978 34.9979 43.6956Z" fill="#2A2A2A"/>
<path id="Vector_4" d="M34.9941 42.9309C40.039 42.9309 44.1287 39.0934 44.1287 34.3595C44.1287 29.6256 40.039 25.7881 34.9941 25.7881C29.9491 25.7881 25.8594 29.6256 25.8594 34.3595C25.8594 39.0934 29.9491 42.9309 34.9941 42.9309Z" fill="white"/>
<path id="Vector_5" d="M34.9952 5.35714C36.5718 5.35714 37.8498 4.15791 37.8498 2.67857C37.8498 1.19924 36.5718 0 34.9952 0C33.4187 0 32.1406 1.19924 32.1406 2.67857C32.1406 4.15791 33.4187 5.35714 34.9952 5.35714Z" fill="#2A2A2A"/>
<path id="Vector_6" d="M34.9952 75C36.5718 75 37.8498 73.8007 37.8498 72.3214C37.8498 70.8421 36.5718 69.6428 34.9952 69.6428C33.4187 69.6428 32.1406 70.8421 32.1406 72.3214C32.1406 73.8007 33.4187 75 34.9952 75Z" fill="#2A2A2A"/>
<path id="Vector_7" d="M67.1437 22.7856C68.7202 22.7856 69.9982 21.5864 69.9982 20.107C69.9982 18.6277 68.7202 17.4285 67.1437 17.4285C65.5671 17.4285 64.2891 18.6277 64.2891 20.107C64.2891 21.5864 65.5671 22.7856 67.1437 22.7856Z" fill="#2A2A2A"/>
<path id="Vector_8" d="M67.1437 57.7148C68.7202 57.7148 69.9982 56.5156 69.9982 55.0362C69.9982 53.5569 68.7202 52.3577 67.1437 52.3577C65.5671 52.3577 64.2891 53.5569 64.2891 55.0362C64.2891 56.5156 65.5671 57.7148 67.1437 57.7148Z" fill="#2A2A2A"/>
<path id="Vector_9" d="M2.85459 22.7856C4.43113 22.7856 5.70917 21.5864 5.70917 20.107C5.70917 18.6277 4.43113 17.4285 2.85459 17.4285C1.27804 17.4285 0 18.6277 0 20.107C0 21.5864 1.27804 22.7856 2.85459 22.7856Z" fill="#2A2A2A"/>
<path id="Vector_10" d="M2.85459 57.7148C4.43113 57.7148 5.70917 56.5156 5.70917 55.0362C5.70917 53.5569 4.43113 52.3577 2.85459 52.3577C1.27804 52.3577 0 53.5569 0 55.0362C0 56.5156 1.27804 57.7148 2.85459 57.7148Z" fill="#2A2A2A"/>
</g>
</svg>
