<svg width="72" height="72" viewBox="0 0 72 72" fill="none" xmlns="http://www.w3.org/2000/svg">
<g id="megaphone, notification, announcement, ad, advertisement 1">
<path id="Vector" d="M66.7629 34.7328C66.7629 40.6691 61.9506 45.4814 56.0143 45.4814C50.078 45.4814 45.2656 40.6691 45.2656 34.7328C45.2656 28.7965 50.078 23.9841 56.0143 23.9841C61.9506 23.9841 66.7629 28.7965 66.7629 34.7328Z" fill="white" stroke="black"/>
<path id="Vector_2" d="M11.1562 43.6948L15.339 62.5023C15.427 62.8883 15.6434 63.2329 15.9527 63.4799C16.2621 63.7268 16.6461 63.8614 17.042 63.8617H18.969C19.2781 63.8617 19.5744 63.7389 19.793 63.5204C20.0115 63.3019 20.1342 63.0055 20.1342 62.6965V54.7044C20.1329 54.0597 20.2649 53.4216 20.522 52.8304C20.7791 52.2391 21.1557 51.7074 21.6281 51.2686L26.2889 46.9663" fill="#2A2A2A"/>
<path id="Vector_3" d="M20.8214 52.2844C21.038 51.916 21.3045 51.5792 21.6131 51.2835L26.2739 46.9813L11.1562 43.6948L12.5306 49.8793C13.6024 49.9891 14.6592 50.2145 15.6826 50.5516L20.8214 52.2844Z" fill="black"/>
<path id="Vector_4" d="M10.9826 24.0281H10.9827C12.6355 24.0276 14.2774 23.7618 15.8458 23.2407L15.8461 23.2406L53.2812 10.777V58.6868L15.8461 46.2232L15.8458 46.2231C14.2774 45.702 12.6355 45.4362 10.9827 45.4357H10.9826H7.62144C6.92205 45.4357 6.2513 45.1579 5.75675 44.6633C5.26221 44.1688 4.98438 43.498 4.98438 42.7986V26.6651V26.6651C4.9843 25.9722 5.25696 25.3071 5.74339 24.8136C6.22901 24.3209 6.88873 24.0389 7.58032 24.0281H10.9826Z" fill="white" stroke="black"/>
<path id="Vector_5" d="M56.1544 7.84253H55.7959C54.6573 7.84253 53.7344 8.7655 53.7344 9.90403V59.5593C53.7344 60.6979 54.6573 61.6208 55.7959 61.6208H56.1544C57.2929 61.6208 58.2159 60.6979 58.2159 59.5593V9.90403C58.2159 8.7655 57.2929 7.84253 56.1544 7.84253Z" fill="#2A2A2A"/>
<path id="Vector_6" d="M58.2656 45.7716C59.8881 45.4492 61.4188 44.7706 62.7472 43.7848V25.6943C61.4188 24.7085 59.8881 24.0299 58.2656 23.7075V45.7716Z" fill="white"/>
</g>
</svg>
