<svg width="80" height="81" viewBox="0 0 80 81" fill="none" xmlns="http://www.w3.org/2000/svg">
<g id="megaphone, notification, announcement, ad, advertisement 6">
<g id="Group 152">
<path id="Vector" d="M39.1115 73.1497L7.28506 41.4458C6.54486 40.7084 6.54255 39.5106 7.27991 38.7704L38.9838 6.94396C39.7212 6.20376 40.919 6.20145 41.6592 6.9388L73.4856 38.6427C74.2258 39.3801 74.2281 40.5779 73.4908 41.3181L41.7869 73.1445C41.0495 73.8847 39.8517 73.887 39.1115 73.1497Z" fill="#E36E02" stroke="black"/>
<path id="Vector_2" d="M39.4185 25.152L39.4238 25.1468L39.4288 25.1414C39.6682 24.8863 39.9989 24.7365 40.3485 24.7248C40.6956 24.7132 41.0331 24.8385 41.2884 25.0735L54.3235 38.0583L54.3248 38.0597C54.4489 38.1824 54.5475 38.3284 54.6149 38.4894C54.6823 38.6503 54.7172 38.823 54.7175 38.9975C54.7179 39.172 54.6837 39.3449 54.6169 39.5061C54.5501 39.6673 54.4521 39.8137 54.3285 39.9369L54.3271 39.9382L51.0793 43.1986L51.0779 43.2C50.9552 43.3241 50.8092 43.4227 50.6483 43.4901C50.4873 43.5575 50.3146 43.5923 50.1401 43.5927C49.9656 43.593 49.7927 43.5588 49.6315 43.492C49.4703 43.4253 49.3239 43.3272 49.2007 43.2036L49.1994 43.2022L44.8305 38.8502L43.9753 37.9982L43.9776 39.2054L44.0056 53.7186C44.0064 54.1513 43.8354 54.5666 43.53 54.8731C43.2246 55.1797 42.81 55.3524 42.3773 55.3532L38.4399 55.3608C38.0072 55.3616 37.5919 55.1905 37.2853 54.8852L36.9325 55.2394L37.2853 54.8852C36.9788 54.5798 36.8061 54.1652 36.8053 53.7325L36.7775 39.3006L36.7751 38.0935L35.9232 38.9487L31.5711 43.3176L31.5698 43.3189C31.4471 43.443 31.3011 43.5416 31.1401 43.609C30.9792 43.6764 30.8065 43.7113 30.632 43.7116C30.4575 43.712 30.2846 43.6778 30.1234 43.611C29.9622 43.5442 29.8158 43.4462 29.6926 43.3226L29.6912 43.3212L26.4309 40.0734L26.4295 40.072C26.3054 39.9494 26.2068 39.8033 26.1394 39.6424C26.072 39.4814 26.0371 39.3087 26.0368 39.1342C26.0365 38.9597 26.0707 38.7869 26.1375 38.6256C26.2042 38.4644 26.3023 38.318 26.4259 38.1949L26.4273 38.1935L39.4185 25.152Z" fill="white" stroke="black"/>
</g>
</g>
</svg>
